<svg width="100" height="100" viewBox="0 0 100 100" fill="none" xmlns="http://www.w3.org/2000/svg">
<path d="M50.0001 5.55556C41.2098 5.55556 32.617 8.16218 25.3081 13.0458C17.9993 17.9294 12.3027 24.8707 8.93882 32.9918C5.57492 41.113 4.69477 50.0493 6.40967 58.6707C8.12457 67.2921 12.3575 75.2113 18.5732 81.427C24.7888 87.6426 32.7081 91.8756 41.3294 93.5905C49.9508 95.3054 58.8871 94.4252 67.0083 91.0613C75.1294 87.6974 82.0707 82.0009 86.9543 74.692C91.838 67.3832 94.4446 58.7903 94.4446 50C94.4446 38.2126 89.762 26.908 81.4271 18.573C73.0921 10.2381 61.7875 5.55556 50.0001 5.55556V5.55556ZM50.0001 88.8889C42.3086 88.8889 34.7899 86.6081 28.3946 82.3349C21.9994 78.0618 17.0149 71.9881 14.0715 64.8821C11.1281 57.7761 10.3579 49.9569 11.8585 42.4132C13.359 34.8695 17.0628 27.9401 22.5015 22.5014C27.9402 17.0627 34.8696 13.3589 42.4133 11.8584C49.957 10.3578 57.7762 11.1279 64.8823 14.0714C71.9883 17.0148 78.0619 21.9992 82.3351 28.3945C86.6082 34.7897 88.889 42.3085 88.889 50C88.889 60.314 84.7918 70.2055 77.4987 77.4986C70.2056 84.7917 60.3141 88.8889 50.0001 88.8889Z" fill="#66CC15"/>
<path d="M77.778 33.6111C77.2575 33.0937 76.5535 32.8033 75.8196 32.8033C75.0858 32.8033 74.3818 33.0937 73.8613 33.6111L43.028 64.3055L26.3613 47.6389C25.853 47.09 25.1474 46.7656 24.3999 46.7369C23.6524 46.7083 22.9241 46.9778 22.3752 47.4861C21.8264 47.9944 21.5019 48.7 21.4733 49.4475C21.4446 50.1951 21.7141 50.9234 22.2224 51.4722L43.028 72.2222L77.778 37.5555C78.0383 37.2973 78.245 36.9901 78.386 36.6516C78.527 36.3131 78.5996 35.95 78.5996 35.5833C78.5996 35.2166 78.527 34.8536 78.386 34.5151C78.245 34.1766 78.0383 33.8693 77.778 33.6111Z" fill="#66CC15"/>
</svg>
