<svg width="100" height="100" viewBox="0 0 100 100" fill="none" xmlns="http://www.w3.org/2000/svg">
<path fill-rule="evenodd" clip-rule="evenodd" d="M53.7499 6.25C63.7499 6.875 73.1249 11.875 79.9999 18.75C88.1249 27.5 92.4999 38.125 92.4999 50.625C92.4999 60.625 88.7499 70 82.4999 78.125C76.2499 85.625 67.4999 91.25 57.4999 93.125C47.4999 95 37.4999 93.75 28.7499 88.75C19.9999 83.75 13.1249 76.25 9.37489 66.875C5.62489 57.5 4.99989 46.875 8.12489 37.5C11.2499 27.5 16.8749 19.375 25.6249 13.75C33.7499 8.125 43.7499 5.625 53.7499 6.25ZM56.8749 86.875C64.9999 85 72.4999 80.625 78.1249 73.75C83.1249 66.875 86.2499 58.75 85.6249 50C85.6249 40 81.8749 30 74.9999 23.125C68.7499 16.875 61.2499 13.125 52.4999 12.5C44.3749 11.875 35.6249 13.75 28.7499 18.75C21.8749 23.75 16.8749 30.625 14.3749 39.375C11.8749 47.5 11.8749 56.25 15.6249 64.375C19.3749 72.5 24.9999 78.75 32.4999 83.125C39.9999 87.5 48.7499 88.75 56.8749 86.875ZM49.3749 46.875L64.3749 31.25L68.7499 35.625L53.7499 51.25L68.7499 66.875L64.3749 71.25L49.3749 55.625L34.3749 71.25L29.9999 66.875L44.9999 51.25L29.9999 35.625L34.3749 31.25L49.3749 46.875Z" fill="#DB353A"/>
</svg>
