<svg width="20" height="20" viewBox="0 0 20 20" fill="none" xmlns="http://www.w3.org/2000/svg">
<circle cx="10" cy="10" r="10" fill="#606062"/>
<path d="M14.5344 12.579L11.7689 9.81296L14.3352 7.24664C14.8207 6.76175 14.8207 5.97524 14.3352 5.48993C13.8501 5.00483 13.0636 5.00504 12.5789 5.48993L10.0122 8.05626L7.31994 5.36383C6.83463 4.87872 6.04813 4.87872 5.56324 5.36383C5.07835 5.84914 5.07835 6.63522 5.56324 7.12053L8.25567 9.81296L5.36398 12.7044C4.87867 13.19 4.87867 13.976 5.36398 14.4613C5.84908 14.9462 6.63537 14.9462 7.12026 14.4613L10.0122 11.5697L12.7782 14.3357C13.2633 14.8208 14.0495 14.8208 14.5344 14.3357C15.02 13.8501 15.0197 13.0636 14.5344 12.579Z" fill="white"/>
</svg>
