<svg width="110" height="100" viewBox="0 0 110 100" fill="none" xmlns="http://www.w3.org/2000/svg">
<g clip-path="url(#clip0)">
<path d="M68.1244 9.23125C64.6713 3.28125 59.9713 0 54.89 0C49.8088 0 45.1057 3.28125 41.6525 9.23125L3.31192 75.2719C-0.188076 81.3562 -0.563077 87.675 2.28067 92.6031C4.98692 97.2906 10.2963 99.9875 16.8557 100H92.9244C99.4932 99.9875 104.812 97.3 107.509 92.6219C110.337 87.725 109.956 81.4313 106.462 75.3563L68.1244 9.23125ZM104.806 91.0594C102.678 94.7469 98.3463 96.8656 92.9182 96.875H16.8588C11.4494 96.8656 7.12442 94.7375 4.98692 91.0406C2.71505 87.1031 3.09317 81.925 6.01817 76.8344L44.3557 10.8C47.2275 5.85 50.9682 3.125 54.89 3.125C58.8119 3.125 62.5525 5.85 65.4213 10.8L103.759 76.9156C106.681 81.9969 107.062 87.1531 104.806 91.0594Z" fill="#DB353A"/>
<path d="M54.8901 62.5C55.3045 62.5 55.702 62.3354 55.995 62.0424C56.288 61.7493 56.4526 61.3519 56.4526 60.9375V29.6875C56.4526 29.2731 56.288 28.8757 55.995 28.5826C55.702 28.2896 55.3045 28.125 54.8901 28.125C54.4757 28.125 54.0783 28.2896 53.7853 28.5826C53.4923 28.8757 53.3276 29.2731 53.3276 29.6875V60.9375C53.3276 61.3519 53.4923 61.7493 53.7853 62.0424C54.0783 62.3354 54.4757 62.5 54.8901 62.5Z" fill="#DB353A"/>
<path d="M54.6899 70.3125C51.2431 70.3125 48.4399 73.1156 48.4399 76.5625C48.4399 80.0094 51.2431 82.8125 54.6899 82.8125C58.1368 82.8125 60.9399 80.0094 60.9399 76.5625C60.9399 73.1156 58.1368 70.3125 54.6899 70.3125ZM54.6899 79.6875C53.8853 79.6515 53.1256 79.3065 52.5689 78.7244C52.0123 78.1423 51.7016 77.3679 51.7016 76.5625C51.7016 75.7571 52.0123 74.9827 52.5689 74.4006C53.1256 73.8185 53.8853 73.4735 54.6899 73.4375C55.4946 73.4735 56.2543 73.8185 56.811 74.4006C57.3676 74.9827 57.6783 75.7571 57.6783 76.5625C57.6783 77.3679 57.3676 78.1423 56.811 78.7244C56.2543 79.3065 55.4946 79.6515 54.6899 79.6875V79.6875Z" fill="#DB353A"/>
</g>
<defs>
<clipPath id="clip0">
<rect width="109.38" height="100" fill="white"/>
</clipPath>
</defs>
</svg>
