<svg width="20" height="20" viewBox="0 0 20 20" fill="none" xmlns="http://www.w3.org/2000/svg">
<path d="M6.1322 5.14049C6.61026 5.56993 7.13693 5.27419 7.30304 5.09998L9.24768 3.00949V15.0501C9.24768 15.5079 9.61635 15.8765 10.0742 15.8765C10.532 15.8765 10.9006 15.5079 10.9006 15.0501V3.00544L12.8453 5.09593C13.1572 5.43219 13.6798 5.44839 14.0161 5.13644C14.3524 4.82449 14.3686 4.30186 14.0566 3.9656L10.6778 0.335603C10.5198 0.169498 10.301 0.0722656 10.0742 0.0722656C9.84322 0.0722656 9.62445 0.169498 9.4705 0.335603L6.09168 3.9656C5.77973 4.30591 5.79189 4.83664 6.1322 5.14049Z" fill="#CAC2C3"/>
<path d="M19.1735 13.2026C18.7157 13.2026 18.3471 13.5713 18.3471 14.0291V18.2749H1.80138V14.0291C1.80138 13.5713 1.43271 13.2026 0.974911 13.2026C0.517109 13.2026 0.148438 13.5713 0.148438 14.0291V19.1014C0.148438 19.5592 0.517109 19.9279 0.974911 19.9279H19.1735C19.6313 19.9279 20 19.5592 20 19.1014V14.0291C20 13.5713 19.6313 13.2026 19.1735 13.2026Z" fill="#CAC2C3"/>
</svg>
